<?xml version="1.0" encoding="UTF-8" standalone="no"?>
<!DOCTYPE svg PUBLIC "-//W3C//DTD SVG 1.1//EN" "http://www.w3.org/Graphics/SVG/1.1/DTD/svg11.dtd">
<svg version="1.1" xmlns="http://www.w3.org/2000/svg" xmlns:xlink="http://www.w3.org/1999/xlink" preserveAspectRatio="xMidYMid meet" viewBox="0 0 820 820" width="820" height="820"><defs><path d="M330.2 3.08L330.29 3.18L330.4 3.32L330.54 3.49L330.71 3.7L330.9 3.95L331.11 4.23L331.34 4.54L331.6 4.89L331.88 5.28L332.18 5.69L332.5 6.13L332.84 6.61L333.2 7.11L333.58 7.65L333.98 8.21L334.39 8.8L334.83 9.41L335.28 10.05L335.74 10.71L336.22 11.4L336.72 12.12L337.23 12.85L337.75 13.61L338.29 14.38L338.84 15.18L339.4 15.99L339.98 16.83L340.56 17.68L341.16 18.55L341.76 19.44L342.38 20.34L343 21.25L343.64 22.18L344.28 23.12L344.92 24.07L345.58 25.04L346.24 26.01L346.9 27L349.94 31.5L356.62 41.4L360.99 47.87L361.67 48.89L363.1 51L376.4 51L376.97 51L377.59 51L378.26 51L378.98 51.01L379.74 51.01L380.54 51.02L381.39 51.03L382.27 51.03L383.19 51.04L384.15 51.05L385.15 51.06L386.18 51.07L387.24 51.08L388.33 51.1L389.45 51.11L390.6 51.12L391.78 51.14L392.98 51.15L394.2 51.17L395.45 51.19L396.72 51.2L398 51.22L399.3 51.24L400.62 51.26L401.95 51.28L403.3 51.3L404.65 51.32L406.02 51.34L407.39 51.36L408.77 51.38L410.16 51.4L411.55 51.42L412.94 51.44L414.33 51.47L415.72 51.49L417.11 51.51L418.49 51.53L419.87 51.56L421.24 51.58L422.6 51.6L455.5 52.3L471.8 28.1L472.47 27.11L473.14 26.14L473.8 25.17L474.46 24.21L475.1 23.27L475.74 22.33L476.37 21.41L477 20.5L477.61 19.61L478.21 18.73L478.81 17.87L479.39 17.02L479.96 16.2L480.52 15.39L481.06 14.6L481.59 13.83L482.11 13.08L482.61 12.36L483.1 11.65L483.58 10.98L484.03 10.32L484.47 9.69L484.89 9.09L485.3 8.51L485.69 7.96L486.05 7.44L486.4 6.95L486.73 6.49L487.04 6.05L487.33 5.66L487.59 5.29L487.83 4.96L488.05 4.66L488.25 4.4L488.42 4.17L488.57 3.98L488.69 3.83L488.79 3.71L488.86 3.64L488.9 3.6L488.97 3.59L489.1 3.6L489.31 3.64L489.59 3.7L489.93 3.78L490.34 3.89L490.81 4.01L491.34 4.16L491.94 4.33L492.6 4.52L493.31 4.73L494.08 4.95L494.91 5.2L495.79 5.46L496.72 5.75L497.71 6.05L498.74 6.36L499.82 6.7L500.95 7.05L502.13 7.41L503.34 7.79L504.6 8.19L505.9 8.6L507.25 9.02L508.62 9.46L510.04 9.91L511.49 10.37L512.98 10.84L514.49 11.33L516.04 11.83L517.62 12.33L519.22 12.85L520.86 13.38L522.51 13.91L524.19 14.46L525.9 15.01L527.62 15.57L529.36 16.14L531.12 16.72L532.9 17.3L576.2 31.5L575.6 50L575.57 50.77L575.54 51.55L575.51 52.34L575.48 53.14L575.45 53.95L575.41 54.76L575.38 55.58L575.35 56.41L575.32 57.24L575.29 58.07L575.25 58.9L575.22 59.74L575.19 60.57L575.16 61.4L575.12 62.23L575.09 63.06L575.06 63.89L575.03 64.71L574.99 65.52L574.96 66.33L574.93 67.12L574.9 67.91L574.87 68.69L574.84 69.46L574.81 70.22L574.78 70.96L574.75 71.69L574.72 72.41L574.69 73.11L574.66 73.79L574.63 74.46L574.6 75.11L574.57 75.74L574.55 76.34L574.52 76.93L574.5 77.49L574.47 78.03L574.45 78.55L574.42 79.04L574.4 79.5L574.39 79.63L574.39 79.81L574.38 80.03L574.27 82.27L574.17 84.65L574.13 85.35L574.06 86.89L574.03 87.73L573.94 89.53L573.9 90.5L611.3 117.7L648.7 144.8L676.1 135L677.98 134.32L679.78 133.67L681.49 133.05L683.12 132.47L684.66 131.91L686.13 131.39L687.52 130.89L688.84 130.42L690.09 129.98L691.26 129.57L692.37 129.18L693.41 128.83L694.39 128.49L695.31 128.18L696.17 127.9L696.98 127.64L697.73 127.4L698.43 127.18L699.07 126.99L699.68 126.81L700.23 126.66L700.74 126.53L701.21 126.41L701.65 126.32L702.04 126.24L702.4 126.18L702.73 126.14L703.03 126.11L703.3 126.1L703.55 126.1L703.77 126.12L703.98 126.15L704.16 126.19L704.33 126.24L704.48 126.31L704.62 126.39L704.75 126.48L704.87 126.58L704.99 126.68L705.1 126.8L705.37 127.12L705.81 127.66L706.41 128.43L707.15 129.41L708.03 130.58L709.04 131.94L710.18 133.47L711.42 135.16L712.77 136.99L714.21 138.96L715.74 141.05L717.35 143.24L719.02 145.54L720.75 147.92L722.53 150.38L724.35 152.89L726.21 155.45L728.09 158.05L729.98 160.67L731.88 163.3L733.77 165.93L735.65 168.55L737.51 171.14L739.34 173.69L741.14 176.19L742.88 178.62L744.57 180.99L746.19 183.26L747.74 185.43L749.2 187.49L750.57 189.43L751.84 191.23L753 192.88L754.04 194.37L754.96 195.68L755.74 196.81L756.37 197.73L756.84 198.45L757.16 198.94L757.3 199.2L757.32 199.29L757.32 199.41L757.29 199.56L757.24 199.72L757.17 199.92L757.08 200.13L756.96 200.37L756.82 200.64L756.66 200.93L756.48 201.25L756.27 201.59L756.04 201.96L755.79 202.35L755.51 202.77L755.21 203.21L754.89 203.68L754.54 204.18L754.17 204.7L753.78 205.25L753.36 205.83L752.92 206.43L752.46 207.06L751.97 207.71L751.45 208.39L750.92 209.1L750.35 209.84L749.77 210.61L749.16 211.4L748.52 212.22L747.86 213.07L747.18 213.94L746.47 214.84L745.74 215.78L744.98 216.74L744.2 217.73L743.39 218.74L742.55 219.79L741.69 220.86L740.81 221.97L739.9 223.1L739.17 224.01L738.44 224.92L737.73 225.81L737.02 226.7L736.32 227.58L735.63 228.44L734.95 229.3L734.28 230.14L733.62 230.97L732.97 231.79L732.33 232.59L731.71 233.38L731.1 234.15L730.51 234.91L729.93 235.64L729.37 236.36L728.82 237.07L728.29 237.75L727.77 238.41L727.28 239.05L726.8 239.67L726.34 240.27L725.9 240.84L725.48 241.39L725.08 241.91L724.7 242.41L724.35 242.88L724.01 243.33L723.7 243.75L723.42 244.14L723.16 244.5L722.92 244.83L722.71 245.13L722.53 245.4L722.37 245.63L722.24 245.83L722.13 246L722.06 246.14L722.02 246.24L722 246.3L722.05 246.53L722.2 247.07L722.45 247.9L722.78 249.01L723.2 250.37L723.7 251.98L724.27 253.81L724.9 255.85L725.61 258.08L726.37 260.49L727.18 263.06L728.04 265.78L728.94 268.62L729.88 271.57L730.85 274.63L731.85 277.76L732.87 280.95L733.9 284.19L734.95 287.46L736 290.75L737.05 294.04L738.1 297.3L739.14 300.54L740.17 303.72L741.17 306.84L742.15 309.87L743.1 312.81L744.01 315.63L744.88 318.32L745.71 320.86L746.48 323.24L747.2 325.44L747.86 327.44L748.45 329.23L748.97 330.79L749.41 332.11L749.77 333.16L750.04 333.94L750.22 334.42L750.3 334.6L750.33 334.61L750.41 334.63L750.53 334.66L750.69 334.7L750.9 334.75L751.15 334.82L751.44 334.9L751.77 334.99L752.14 335.09L752.55 335.2L752.99 335.32L753.47 335.45L753.99 335.58L754.54 335.73L755.13 335.89L755.74 336.06L756.39 336.24L757.07 336.42L757.79 336.61L758.53 336.81L759.29 337.02L760.09 337.24L760.91 337.46L761.76 337.69L762.63 337.93L763.52 338.17L764.44 338.42L765.38 338.67L766.34 338.93L767.32 339.2L768.31 339.47L769.33 339.75L770.36 340.03L771.41 340.31L772.48 340.6L773.56 340.89L774.65 341.19L775.76 341.49L776.87 341.79L778 342.1L786.25 344.32L794.5 346.54L803.08 348.85L805.5 349.5L805.8 395.7L806 441.8L778.3 451L777.16 451.38L776.02 451.76L774.9 452.14L773.79 452.51L772.69 452.89L771.61 453.26L770.54 453.62L769.49 453.98L768.45 454.34L767.43 454.69L766.43 455.04L765.45 455.38L764.48 455.72L763.54 456.05L762.62 456.38L761.73 456.7L760.85 457.01L760.01 457.31L759.18 457.61L758.39 457.9L757.62 458.18L756.88 458.45L756.17 458.72L755.49 458.97L754.84 459.21L754.23 459.45L753.64 459.67L753.09 459.89L752.58 460.09L752.1 460.28L751.66 460.46L751.26 460.63L750.89 460.78L750.57 460.93L750.28 461.06L750.04 461.17L749.84 461.28L749.68 461.37L749.57 461.44L749.5 461.5L749.45 461.59L749.38 461.74L749.29 461.95L749.18 462.23L749.05 462.57L748.9 462.97L748.73 463.43L748.54 463.94L748.34 464.51L748.12 465.14L747.88 465.82L747.62 466.55L747.35 467.33L747.06 468.16L746.75 469.04L746.44 469.97L746.1 470.94L745.76 471.96L745.4 473.01L745.03 474.11L744.64 475.25L744.24 476.43L743.84 477.64L743.42 478.9L742.99 480.18L742.55 481.5L742.1 482.85L741.64 484.23L741.17 485.64L740.7 487.08L740.21 488.54L739.72 490.03L739.23 491.55L738.72 493.08L738.22 494.64L737.7 496.22L737.18 497.82L736.66 499.43L736.13 501.06L735.6 502.7L727.92 526.64L722.8 542.6L740.1 566.5L740.81 567.49L741.51 568.47L742.21 569.44L742.89 570.4L743.57 571.35L744.24 572.29L744.9 573.23L745.55 574.14L746.18 575.05L746.81 575.94L747.42 576.82L748.03 577.68L748.61 578.52L749.19 579.35L749.75 580.16L750.29 580.95L750.82 581.72L751.34 582.47L751.83 583.19L752.31 583.9L752.77 584.58L753.22 585.24L753.64 585.87L754.05 586.48L754.43 587.06L754.8 587.61L755.14 588.14L755.46 588.63L755.76 589.1L756.03 589.53L756.28 589.94L756.51 590.31L756.72 590.65L756.89 590.95L757.05 591.22L757.17 591.45L757.27 591.64L757.34 591.8L757.39 591.92L757.4 592L757.3 592.28L757.02 592.81L756.56 593.57L755.94 594.56L755.15 595.75L754.22 597.15L753.16 598.72L751.96 600.46L750.64 602.36L749.22 604.41L747.7 606.58L746.08 608.87L744.39 611.26L742.63 613.74L740.8 616.29L738.93 618.91L737.01 621.58L735.07 624.29L733.1 627.01L731.11 629.75L729.13 632.48L727.15 635.2L725.19 637.89L723.25 640.53L721.35 643.11L719.5 645.63L717.7 648.06L715.96 650.39L714.3 652.62L712.72 654.72L711.24 656.68L709.86 658.5L708.59 660.15L707.45 661.62L706.44 662.9L705.57 663.98L704.85 664.84L704.29 665.48L703.91 665.87L703.7 666L703.63 665.99L703.51 665.97L703.34 665.93L703.14 665.88L702.89 665.81L702.61 665.73L702.28 665.64L701.92 665.53L701.52 665.41L701.08 665.28L700.6 665.14L700.09 664.98L699.55 664.81L698.97 664.63L698.36 664.44L697.72 664.24L697.05 664.02L696.35 663.8L695.62 663.57L694.86 663.33L694.08 663.07L693.27 662.81L692.43 662.54L691.58 662.26L690.69 661.98L689.79 661.68L688.86 661.38L687.92 661.07L686.95 660.75L685.97 660.43L684.97 660.1L683.95 659.77L682.91 659.43L681.86 659.08L680.8 658.73L679.72 658.37L678.63 658.01L677.53 657.64L676.42 657.27L675.3 656.9L674.02 656.48L672.76 656.07L671.53 655.66L670.32 655.27L669.14 654.89L667.99 654.52L666.87 654.16L665.77 653.81L664.7 653.47L663.66 653.14L662.65 652.83L661.66 652.52L660.71 652.23L659.78 651.94L658.89 651.67L658.02 651.41L657.18 651.16L656.37 650.92L655.6 650.69L654.85 650.48L654.13 650.27L653.45 650.08L652.8 649.9L652.17 649.73L651.58 649.57L651.02 649.43L650.5 649.29L650 649.17L649.54 649.06L649.12 648.97L648.72 648.88L648.36 648.81L648.03 648.75L647.74 648.71L647.48 648.68L647.25 648.65L647.06 648.65L646.91 648.65L646.79 648.67L646.7 648.7L646.61 648.75L646.46 648.85L646.26 648.98L646 649.16L645.69 649.37L645.33 649.62L644.91 649.92L644.45 650.24L643.94 650.61L643.37 651.01L642.76 651.44L642.11 651.91L641.41 652.41L640.67 652.94L639.89 653.51L639.06 654.1L638.2 654.72L637.3 655.37L636.36 656.05L635.39 656.75L634.38 657.48L633.34 658.23L632.26 659.01L631.16 659.81L630.02 660.63L628.85 661.47L627.66 662.34L626.44 663.22L625.2 664.12L623.93 665.04L622.64 665.98L621.33 666.93L620 667.89L618.65 668.87L617.28 669.87L615.89 670.87L614.49 671.89L613.07 672.92L611.64 673.95L610.2 675L606.7 677.55L605.58 678.37L602.92 680.3L601.38 681.43L599.7 682.65L595.92 685.4L589.2 690.3L586.68 692.14L575.2 700.5L575.3 730.5L575.5 760.4L537.7 772.82L533.5 774.2L531.77 774.77L530.06 775.33L528.37 775.88L526.69 776.43L525.03 776.98L523.39 777.51L521.78 778.04L520.18 778.55L518.61 779.06L517.07 779.56L515.55 780.05L514.07 780.53L512.61 781L511.19 781.46L509.8 781.91L508.44 782.34L507.12 782.76L505.84 783.17L504.59 783.57L503.39 783.95L502.23 784.32L501.11 784.67L500.03 785.01L499 785.33L498.02 785.64L497.09 785.93L496.21 786.2L495.38 786.46L494.61 786.69L493.89 786.91L493.22 787.11L492.61 787.29L492.07 787.46L491.58 787.6L491.15 787.72L490.79 787.82L490.49 787.9L490.26 787.95L490.1 787.99L490 788L489.92 787.98L489.82 787.92L489.68 787.82L489.52 787.68L489.33 787.51L489.11 787.3L488.86 787.05L488.59 786.77L488.29 786.46L487.97 786.11L487.63 785.72L487.25 785.31L486.86 784.87L486.45 784.39L486.01 783.89L485.55 783.35L485.07 782.79L484.58 782.2L484.06 781.59L483.53 780.95L482.97 780.29L482.4 779.6L481.82 778.88L481.22 778.15L480.6 777.39L479.97 776.62L479.32 775.82L478.67 775.01L478 774.17L477.32 773.32L476.62 772.45L475.92 771.56L475.21 770.66L474.49 769.75L473.76 768.82L473.02 767.88L472.27 766.93L471.52 765.96L470.76 764.99L470 764L469.78 763.71L469.64 763.53L467.57 760.83L467.25 760.41L451.6 740L368.3 740L349.5 764.5L348.73 765.51L347.97 766.51L347.21 767.49L346.46 768.47L345.73 769.43L345 770.38L344.28 771.31L343.57 772.23L342.87 773.13L342.18 774.02L341.5 774.89L340.84 775.74L340.19 776.58L339.56 777.39L338.94 778.18L338.34 778.95L337.75 779.7L337.18 780.42L336.62 781.12L336.09 781.8L335.57 782.45L335.07 783.08L334.59 783.67L334.14 784.24L333.7 784.78L333.28 785.29L332.89 785.78L332.52 786.23L332.17 786.64L331.85 787.03L331.55 787.38L331.28 787.7L331.04 787.98L330.82 788.22L330.63 788.43L330.46 788.61L330.33 788.74L330.22 788.83L330.15 788.89L330.1 788.9L330.04 788.88L329.91 788.84L329.72 788.78L329.46 788.69L329.13 788.59L328.73 788.46L328.28 788.31L327.76 788.15L327.18 787.96L326.55 787.75L325.85 787.53L325.1 787.29L324.3 787.03L323.45 786.75L322.54 786.46L321.58 786.15L320.57 785.83L319.52 785.49L318.42 785.13L317.28 784.76L316.09 784.38L314.86 783.98L313.59 783.57L312.28 783.15L310.93 782.71L309.55 782.26L308.14 781.81L306.68 781.34L305.2 780.85L303.69 780.36L302.15 779.86L300.58 779.35L298.98 778.84L297.36 778.31L295.72 777.78L294.06 777.23L292.37 776.68L290.66 776.13L288.94 775.57L287.2 775L285.46 774.43L283.74 773.87L282.03 773.31L280.34 772.76L278.68 772.21L277.04 771.67L275.41 771.14L273.82 770.61L272.25 770.09L270.71 769.58L269.19 769.08L267.71 768.59L266.26 768.11L264.84 767.64L263.46 767.18L262.11 766.73L260.8 766.29L259.53 765.86L258.3 765.45L257.11 765.05L255.97 764.66L254.86 764.29L253.81 763.93L252.8 763.59L251.84 763.26L250.93 762.95L250.07 762.65L249.26 762.37L248.51 762.11L247.81 761.87L247.17 761.64L246.59 761.43L246.07 761.24L245.61 761.07L245.21 760.93L244.87 760.8L244.6 760.69L244.4 760.61L244.27 760.54L244.2 760.5L244.17 760.45L244.14 760.34L244.11 760.19L244.08 759.99L244.06 759.75L244.03 759.46L244 759.13L243.97 758.76L243.95 758.35L243.92 757.89L243.9 757.4L243.87 756.86L243.85 756.29L243.83 755.68L243.8 755.04L243.78 754.36L243.76 753.65L243.74 752.91L243.72 752.13L243.7 751.33L243.68 750.49L243.66 749.62L243.65 748.73L243.63 747.81L243.62 746.87L243.6 745.9L243.59 744.91L243.58 743.89L243.56 742.85L243.55 741.8L243.54 740.72L243.53 739.62L243.53 738.51L243.52 737.38L243.51 736.23L243.51 735.07L243.5 733.9L243.5 732.71L243.5 731.51L243.5 730.3L243.5 700.8L229.22 690.44L207.8 674.9L206.33 673.83L204.87 672.78L203.43 671.73L202 670.7L200.59 669.68L199.2 668.68L197.83 667.69L196.48 666.72L195.15 665.76L193.84 664.82L192.56 663.9L191.3 663L190.07 662.12L188.87 661.26L187.7 660.42L186.56 659.61L185.45 658.81L184.37 658.05L183.32 657.3L182.31 656.59L181.34 655.9L180.4 655.24L179.51 654.6L178.65 654L177.83 653.42L177.06 652.88L176.32 652.37L175.64 651.89L175 651.45L174.4 651.04L173.86 650.66L173.36 650.32L172.91 650.02L172.52 649.75L172.18 649.53L171.89 649.34L171.65 649.19L171.48 649.09L171.36 649.02L171.3 649L171.24 649.01L171.13 649.03L170.99 649.07L170.79 649.13L170.56 649.19L170.28 649.28L169.97 649.38L169.61 649.49L169.22 649.61L168.79 649.75L168.32 649.9L167.82 650.07L167.28 650.25L166.71 650.43L166.11 650.63L165.47 650.85L164.8 651.07L164.11 651.3L163.38 651.55L162.63 651.8L161.84 652.06L161.03 652.34L160.2 652.62L159.34 652.91L158.46 653.21L157.55 653.52L156.63 653.83L155.68 654.15L154.71 654.48L153.72 654.82L152.72 655.17L151.69 655.52L150.65 655.87L149.6 656.23L148.53 656.6L147.45 656.97L146.35 657.35L145.25 657.73L144.13 658.11L143 658.5L141.1 659.15L139.29 659.77L137.57 660.36L135.93 660.92L134.38 661.46L132.9 661.96L131.5 662.43L130.17 662.88L128.92 663.3L127.74 663.7L126.62 664.07L125.58 664.41L124.59 664.73L123.67 665.02L122.81 665.3L122 665.54L121.25 665.77L120.55 665.98L119.9 666.16L119.3 666.33L118.75 666.47L118.23 666.59L117.76 666.7L117.33 666.79L116.94 666.86L116.58 666.91L116.25 666.95L115.95 666.97L115.68 666.97L115.44 666.97L115.22 666.94L115.02 666.91L114.83 666.86L114.67 666.8L114.52 666.72L114.38 666.64L114.25 666.54L114.13 666.44L114.01 666.32L113.9 666.2L113.81 666.1L113.68 665.95L113.51 665.74L113.3 665.47L113.05 665.15L112.76 664.77L112.43 664.35L112.07 663.87L111.67 663.34L111.24 662.77L110.77 662.15L110.27 661.48L109.74 660.77L109.18 660.01L108.58 659.21L107.96 658.37L107.31 657.5L106.63 656.58L105.93 655.63L105.2 654.64L104.45 653.61L103.67 652.56L102.87 651.47L102.04 650.35L101.2 649.2L100.33 648.02L99.45 646.81L98.54 645.58L97.62 644.32L96.69 643.04L95.73 641.74L94.77 640.41L93.79 639.07L92.79 637.7L91.78 636.32L90.77 634.93L89.74 633.51L88.7 632.09L87.65 630.65L86.6 629.2L85.43 627.59L84.29 626.02L83.17 624.47L82.07 622.95L81 621.45L79.95 619.99L78.92 618.56L77.92 617.16L76.95 615.8L76 614.46L75.07 613.16L74.18 611.9L73.31 610.66L72.46 609.46L71.65 608.3L70.86 607.17L70.1 606.08L69.37 605.03L68.67 604.01L68 603.04L67.36 602.1L66.75 601.2L66.17 600.34L65.62 599.52L65.1 598.74L64.62 598.01L64.16 597.31L63.74 596.66L63.36 596.06L63 595.49L62.68 594.97L62.4 594.5L62.15 594.07L61.93 593.69L61.75 593.35L61.61 593.07L61.5 592.83L61.43 592.63L61.4 592.49L61.4 592.4L61.44 592.32L61.5 592.2L61.59 592.05L61.71 591.86L61.85 591.63L62.02 591.37L62.21 591.08L62.43 590.75L62.67 590.39L62.94 590L63.22 589.58L63.53 589.13L63.86 588.65L64.21 588.14L64.58 587.61L64.97 587.05L65.38 586.46L65.81 585.85L66.25 585.21L66.71 584.55L67.19 583.87L67.69 583.16L68.2 582.44L68.72 581.69L69.26 580.93L69.82 580.15L70.38 579.35L70.96 578.53L71.55 577.7L72.16 576.85L72.77 575.98L73.4 575.11L74.03 574.22L74.68 573.32L75.33 572.4L75.99 571.48L76.66 570.55L77.33 569.61L78.01 568.66L78.7 567.7L79.38 566.75L80.05 565.81L80.72 564.88L81.38 563.95L82.03 563.04L82.67 562.14L83.3 561.24L83.92 560.36L84.53 559.5L85.13 558.65L85.72 557.81L86.3 556.99L86.86 556.18L87.41 555.39L87.95 554.62L88.47 553.87L88.98 553.14L89.48 552.42L89.95 551.73L90.41 551.06L90.86 550.42L91.28 549.79L91.69 549.19L92.08 548.62L92.45 548.07L92.8 547.55L93.13 547.06L93.43 546.59L93.72 546.16L93.99 545.75L94.23 545.37L94.45 545.03L94.64 544.72L94.81 544.44L94.96 544.19L95.08 543.98L95.18 543.81L95.24 543.67L95.29 543.56L95.3 543.5L95.29 543.43L95.26 543.29L95.2 543.09L95.13 542.82L95.03 542.49L94.92 542.1L94.78 541.65L94.63 541.14L94.46 540.58L94.26 539.96L94.06 539.28L93.83 538.56L93.58 537.78L93.32 536.95L93.05 536.07L92.76 535.15L92.45 534.18L92.13 533.16L91.79 532.1L91.44 531L91.07 529.86L90.69 528.68L90.3 527.46L89.9 526.21L89.48 524.92L89.06 523.59L88.62 522.24L88.17 520.85L87.71 519.43L87.24 517.99L86.76 516.52L86.28 515.02L85.78 513.5L85.28 511.96L84.76 510.39L84.24 508.81L83.72 507.21L83.18 505.59L82.64 503.95L82.1 502.3L69 462.1L12 443.5L11.98 441.74L11.97 440.06L11.94 437.69L11.93 436.94L11.93 436.21L11.92 435.5L11.91 434.14L11.9 433.49L11.89 432.86L11.89 432.25L11.87 430.54L11.87 430.01L11.85 428.54L11.85 428.09L11.84 427.66L11.84 427.25L11.83 426.86L11.82 425.21L11.81 424.94L11.81 424.46L11.81 424.25L11.81 424.06L11.8 423.74L11.8 423.61L11.8 423.5L11.79 421.86L11.78 420.1L11.77 418.24L11.76 416.28L11.76 414.23L11.75 412.09L11.76 409.89L11.76 407.61L11.76 405.28L11.77 402.9L11.78 400.48L11.79 398.02L11.8 395.54L11.81 393.04L11.83 390.53L11.84 388.02L11.86 385.52L11.88 383.03L11.9 380.56L11.93 378.13L11.95 375.73L11.97 373.38L12 371.08L12.02 368.84L12.05 366.68L12.08 364.6L12.11 362.6L12.13 360.7L12.16 358.9L12.19 357.21L12.22 355.64L12.25 354.2L12.29 352.89L12.32 351.73L12.35 350.71L12.38 349.86L12.41 349.17L12.44 348.66L12.47 348.34L12.5 348.2L12.54 348.18L12.62 348.14L12.75 348.09L12.92 348.03L13.14 347.95L13.39 347.86L13.69 347.76L14.03 347.65L14.41 347.52L14.82 347.38L15.28 347.23L15.77 347.07L16.29 346.9L16.85 346.72L17.44 346.52L18.07 346.32L18.73 346.11L19.42 345.89L20.14 345.65L20.89 345.41L21.66 345.16L22.47 344.9L23.3 344.64L24.16 344.36L25.04 344.08L25.94 343.79L26.87 343.49L27.82 343.19L28.79 342.88L29.78 342.56L30.79 342.24L31.82 341.91L32.87 341.57L33.93 341.23L35.01 340.89L36.1 340.54L37.21 340.19L38.33 339.83L39.46 339.47L40.6 339.1L68.5 330.4L82.3 288.7L96.1 246.9L94.55 244.79L93.8 243.77L90.99 239.93L90.33 239.03L78.84 223.37L78.71 223.19L78.5 222.9L77.78 221.91L77.06 220.93L76.35 219.96L75.66 219L74.97 218.05L74.29 217.11L73.62 216.17L72.97 215.26L72.32 214.35L71.69 213.46L71.08 212.58L70.47 211.72L69.88 210.88L69.31 210.05L68.75 209.25L68.2 208.46L67.68 207.69L67.17 206.94L66.67 206.22L66.2 205.51L65.74 204.83L65.31 204.18L64.89 203.55L64.5 202.94L64.12 202.36L63.77 201.81L63.44 201.29L63.13 200.8L62.84 200.34L62.58 199.91L62.34 199.51L62.13 199.14L61.95 198.81L61.78 198.51L61.65 198.25L61.54 198.02L61.46 197.84L61.41 197.68L61.39 197.57L61.4 197.5L61.55 197.22L61.89 196.69L62.4 195.93L63.07 194.95L63.9 193.76L64.86 192.38L65.97 190.82L67.2 189.1L68.54 187.22L69.99 185.2L71.53 183.06L73.16 180.8L74.87 178.44L76.64 175.99L78.47 173.46L80.35 170.88L82.27 168.24L84.22 165.57L86.19 162.88L88.16 160.18L90.14 157.48L92.11 154.79L94.05 152.14L95.97 149.53L97.86 146.97L99.69 144.48L101.47 142.08L103.18 139.77L104.81 137.57L106.36 135.48L107.81 133.54L109.16 131.74L110.39 130.1L111.5 128.63L112.47 127.35L113.3 126.27L113.98 125.4L114.5 124.76L114.84 124.35L115 124.2L115.06 124.19L115.16 124.2L115.31 124.23L115.5 124.27L115.74 124.33L116.01 124.41L116.32 124.5L116.67 124.6L117.06 124.72L117.49 124.86L117.95 125.01L118.45 125.17L118.99 125.34L119.55 125.53L120.15 125.73L120.78 125.94L121.44 126.17L122.13 126.41L122.85 126.65L123.6 126.91L124.37 127.18L125.18 127.46L126 127.75L126.85 128.05L127.72 128.36L128.62 128.68L129.54 129.01L130.48 129.34L131.43 129.68L132.41 130.04L133.4 130.39L134.41 130.76L135.44 131.13L136.48 131.51L137.54 131.9L138.61 132.29L139.69 132.68L140.78 133.08L141.89 133.49L143 133.9L144.95 134.62L145.71 134.9L147.55 135.58L148.64 135.98L151.13 136.9L165.44 142.18L170.1 143.9L207.6 116.7L245.2 89.6L244.4 64.5L244.36 63.47L244.33 62.45L244.29 61.43L244.26 60.41L244.22 59.4L244.19 58.4L244.16 57.4L244.12 56.41L244.09 55.43L244.06 54.46L244.03 53.51L244 52.56L243.98 51.63L243.95 50.71L243.92 49.81L243.9 48.92L243.87 48.06L243.85 47.2L243.82 46.37L243.8 45.56L243.78 44.77L243.76 44L243.74 43.26L243.72 42.54L243.7 41.84L243.68 41.18L243.66 40.53L243.64 39.92L243.63 39.33L243.61 38.78L243.6 38.26L243.58 37.76L243.57 37.31L243.56 36.88L243.55 36.49L243.54 36.14L243.53 35.82L243.52 35.54L243.51 35.3L243.5 35.1L243.5 30.7L286.5 16.9L288.26 16.33L290.01 15.76L291.74 15.19L293.45 14.64L295.14 14.09L296.8 13.55L298.45 13.02L300.07 12.5L301.66 11.98L303.23 11.48L304.76 10.99L306.27 10.5L307.74 10.03L309.18 9.57L310.59 9.12L311.96 8.68L313.29 8.26L314.58 7.84L315.83 7.45L317.04 7.06L318.2 6.69L319.32 6.34L320.39 6L321.42 5.68L322.4 5.37L323.32 5.08L324.19 4.8L325.01 4.55L325.77 4.31L326.48 4.09L327.13 3.89L327.72 3.71L328.24 3.54L328.71 3.4L329.11 3.28L329.44 3.18L329.71 3.1L329.91 3.05L330.04 3.01L330.1 3L330.14 3.02L330.2 3.08ZM400.89 108.11L396.31 108.29L391.73 108.53L387.16 108.85L382.59 109.25L378.03 109.71L373.47 110.26L368.93 110.87L364.39 111.56L359.86 112.32L355.35 113.15L350.84 114.05L346.35 115.03L341.88 116.08L337.41 117.19L332.97 118.39L328.53 119.65L324.12 120.98L319.73 122.38L315.35 123.86L310.99 125.4L306.66 127.02L302.35 128.7L298.06 130.46L293.79 132.28L289.55 134.18L285.33 136.14L281.14 138.17L276.98 140.27L272.84 142.44L268.74 144.68L264.66 146.99L260.61 149.36L256.6 151.8L254.38 153.19L252.16 154.62L249.92 156.1L247.68 157.62L245.44 159.17L243.19 160.77L240.94 162.41L238.69 164.09L236.44 165.8L234.19 167.54L231.95 169.32L229.71 171.13L227.48 172.97L225.25 174.84L223.03 176.74L220.83 178.66L218.63 180.61L216.45 182.58L214.28 184.58L212.13 186.6L209.99 188.64L207.87 190.7L205.77 192.77L203.69 194.86L201.64 196.97L199.61 199.09L197.6 201.22L195.62 203.37L193.67 205.52L191.74 207.68L189.85 209.85L187.99 212.03L186.16 214.21L184.37 216.4L182.61 218.58L180.89 220.77L179.2 222.96L177.56 225.14L175.96 227.32L174.4 229.5L171.33 233.92L168.35 238.4L165.45 242.94L162.64 247.53L159.92 252.16L157.29 256.85L154.74 261.59L152.29 266.37L149.92 271.19L147.65 276.06L145.46 280.96L143.37 285.91L141.36 290.89L139.45 295.9L137.63 300.95L135.91 306.03L134.27 311.14L132.73 316.28L131.29 321.44L129.94 326.63L128.68 331.83L127.52 337.06L126.46 342.31L125.49 347.57L124.62 352.85L123.85 358.14L123.17 363.45L122.59 368.76L122.12 374.08L121.74 379.41L121.46 384.74L121.28 390.07L121.2 395.4L121.22 400.74L121.34 406.06L121.57 411.39L121.9 416.71L122.33 422.01L122.86 427.31L123.5 432.6L124.52 439.75L125.72 446.85L127.09 453.9L128.63 460.9L130.34 467.83L132.21 474.7L134.25 481.51L136.45 488.25L138.81 494.93L141.32 501.53L144 508.05L146.83 514.5L149.81 520.88L152.94 527.17L156.23 533.37L159.66 539.49L163.23 545.52L166.95 551.45L170.81 557.29L174.81 563.04L178.95 568.68L183.23 574.22L187.64 579.66L192.18 584.99L196.85 590.21L201.66 595.31L206.59 600.3L211.64 605.17L216.82 609.93L222.12 614.55L227.54 619.06L233.08 623.43L238.73 627.68L244.5 631.79L250.38 635.76L256.37 639.6L262.47 643.29L268.67 646.84L274.99 650.24L281.4 653.5L284.36 654.94L287.32 656.34L290.28 657.7L293.25 659.03L296.23 660.33L299.21 661.59L302.2 662.81L305.19 664L308.19 665.15L311.2 666.26L314.21 667.35L317.24 668.39L320.27 669.4L323.3 670.38L326.35 671.32L329.41 672.23L332.48 673.1L335.55 673.94L338.64 674.74L341.74 675.51L344.85 676.25L347.97 676.95L351.1 677.61L354.24 678.25L357.4 678.84L360.57 679.41L363.75 679.94L366.95 680.44L370.16 680.9L373.38 681.33L376.62 681.73L379.88 682.09L383.15 682.42L386.43 682.71L389.73 682.98L393.05 683.21L396.39 683.41L399.74 683.57L403.11 683.7L406.5 683.8L406.72 683.81L406.96 683.81L407.23 683.81L407.52 683.82L407.82 683.81L408.15 683.81L408.49 683.81L408.86 683.8L409.24 683.79L409.64 683.79L410.05 683.78L410.49 683.76L410.93 683.75L411.39 683.73L411.87 683.72L412.36 683.7L412.86 683.68L413.38 683.66L413.9 683.64L414.44 683.61L414.98 683.59L415.54 683.56L416.11 683.53L416.68 683.5L417.26 683.47L417.85 683.44L418.45 683.41L419.05 683.38L419.66 683.34L420.27 683.31L420.88 683.27L421.5 683.23L422.12 683.2L422.75 683.16L423.37 683.12L424 683.07L424.63 683.03L425.25 682.99L425.88 682.94L426.5 682.9L430.99 682.57L435.46 682.18L439.9 681.73L444.31 681.22L448.7 680.64L453.05 680.01L457.39 679.32L461.69 678.56L465.97 677.75L470.23 676.87L474.45 675.93L478.66 674.94L482.84 673.88L486.99 672.76L491.12 671.58L495.22 670.33L499.3 669.03L503.36 667.66L507.39 666.24L511.4 664.75L515.39 663.2L519.35 661.59L523.29 659.92L527.21 658.18L531.1 656.39L534.97 654.53L538.83 652.61L542.66 650.63L546.46 648.58L550.25 646.48L554.02 644.31L557.76 642.08L561.49 639.79L565.19 637.43L568.87 635.02L572.54 632.54L576.18 630L579.81 627.39L583.41 624.73L587 622L588 621.21L589.04 620.37L590.13 619.47L591.25 618.52L592.42 617.52L593.61 616.48L594.84 615.39L596.1 614.26L597.39 613.09L598.7 611.88L600.03 610.64L601.38 609.37L602.75 608.08L604.13 606.75L605.52 605.41L606.92 604.04L608.33 602.66L609.74 601.26L611.15 599.85L612.56 598.43L613.97 597L615.37 595.56L616.76 594.13L618.13 592.7L619.5 591.27L620.84 589.84L622.17 588.43L623.47 587.02L624.75 585.63L626 584.26L627.21 582.9L628.4 581.57L629.55 580.26L630.67 578.98L631.74 577.73L632.77 576.51L633.75 575.32L634.69 574.17L635.57 573.06L636.4 572L640.01 567.19L643.51 562.32L646.9 557.4L650.18 552.41L653.36 547.37L656.43 542.28L659.39 537.13L662.23 531.94L664.97 526.69L667.6 521.4L670.12 516.07L672.53 510.69L674.82 505.27L677 499.82L679.07 494.32L681.03 488.79L682.87 483.22L684.6 477.62L686.21 472L687.71 466.34L689.1 460.65L690.37 454.94L691.52 449.21L692.55 443.45L693.47 437.67L694.27 431.88L694.96 426.07L695.52 420.24L695.97 414.4L696.29 408.55L696.5 402.69L696.59 396.82L696.55 390.95L696.4 385.07L696.12 379.19L695.72 373.3L695.2 367.42L694.56 361.54L693.79 355.67L692.9 349.8L691.15 340.07L689.09 330.45L686.71 320.97L684.03 311.63L681.06 302.42L677.79 293.36L674.23 284.45L670.39 275.69L666.28 267.1L661.9 258.67L657.25 250.41L652.34 242.33L647.18 234.43L641.78 226.72L636.13 219.2L630.24 211.87L624.13 204.75L617.79 197.84L611.23 191.14L604.46 184.66L597.48 178.41L590.3 172.38L582.93 166.58L575.36 161.03L567.61 155.72L559.68 150.66L551.57 145.86L543.3 141.31L534.86 137.03L526.27 133.03L517.53 129.3L508.64 125.84L499.62 122.68L490.46 119.81L481.17 117.23L471.76 114.96L462.23 113L452.59 111.35L442.84 110.01L433 109L428.42 108.65L423.83 108.37L419.24 108.17L414.65 108.04L410.06 107.99L405.48 108.02L400.89 108.11Z" id="bOW80xFsE"></path><path d="M277.74 581.75C283.03 576.53 285.96 573.64 286.55 573.06C291.41 568.33 295.88 562.58 296.64 560.54C298.56 554.79 293.83 533.2 268.92 434.06C236.22 304.64 227.27 270.91 223.57 263.5C221.65 259.8 217.56 254.05 214.5 250.73C214.12 250.33 212.25 248.33 208.88 244.72C210.1 241.12 210.79 239.12 210.92 238.72C212.07 235.4 213.6 232.46 214.5 232.2C215.27 231.82 240.82 231.44 271.22 231.31C274.9 231.28 293.3 231.16 326.41 230.93L328.46 237.06L330.5 243.19L325.77 248.43L320.92 253.67C321.38 259.49 321.63 262.73 321.68 263.38C322.71 275.9 352.73 420.52 354.65 422.56C354.9 422.82 365.5 382.45 378.15 333C379.68 327.01 387.3 297.03 401.02 243.06L408.3 243.06L415.71 243.06C416.86 247.13 417.5 249.38 417.63 249.83C418.65 253.41 429 290.97 440.75 333.13C452.38 375.29 462.34 410.81 462.85 412.21C463.49 413.75 465.28 404.8 467.96 387.3C470.14 372.23 475.5 337.86 479.72 310.77C484.06 283.69 487.25 259.67 486.87 257.24C486.49 254.82 484.7 251.24 482.78 249.32C479.59 246 479.46 245.36 480.48 238.97C480.56 238.52 480.94 236.27 481.63 232.2L543.59 232.2L605.43 232.2L607.22 238.21L608.88 244.21C605.81 246.97 604.11 248.5 603.77 248.81C594.82 256.99 581.92 275.51 579.11 284.33C567.36 321.63 536.44 484.4 529.41 545.85C528.01 558.75 528.01 559.52 530.82 566.03C532.35 569.61 535.67 574.47 538.23 576.64C538.53 576.9 540.02 578.22 542.7 580.6L541.17 587.5L539.63 594.4L479.97 594.14L420.44 593.76C419.37 590.15 418.77 588.15 418.65 587.75C417.12 582 417.12 581.49 420.57 576.38C423.63 571.78 424.14 569.74 423.89 563.22C423.76 556.58 414.82 507.01 412.39 499.22C411.5 496.28 407.41 514.04 402.43 543.04C398.47 566.03 398.34 572.42 401.91 577.15C404.47 580.34 404.6 581.11 403.19 587.5C403.09 587.96 402.58 590.26 401.66 594.4L341.74 594.4L281.95 594.4L279.78 588.14L277.74 581.75Z" id="akEi3TZ4b"></path></defs><g><g><g><use xlink:href="#bOW80xFsE" opacity="1" fill="#cfcfcf" fill-opacity="1"></use><g><use xlink:href="#bOW80xFsE" opacity="1" fill-opacity="0" stroke="#000000" stroke-width="1" stroke-opacity="0"></use></g></g><g><use xlink:href="#akEi3TZ4b" opacity="1" fill="#cfcfcf" fill-opacity="1"></use><g><use xlink:href="#akEi3TZ4b" opacity="1" fill-opacity="0" stroke="#000000" stroke-width="1" stroke-opacity="0"></use></g></g></g></g></svg>