<!DOCTYPE svg PUBLIC "-//W3C//DTD SVG 20010904//EN" "http://www.w3.org/TR/2001/REC-SVG-20010904/DTD/svg10.dtd">
<svg version="1.0" xmlns="http://www.w3.org/2000/svg" width="813px" height="799px" viewBox="0 0 8130 7990" preserveAspectRatio="xMidYMid meet">
<g id="layer101" fill="#cfcfcf" stroke="none">
 <path d="M2872 7750 c-233 -76 -426 -141 -430 -145 -4 -4 -7 -140 -7 -302 l0 -295 -357 -259 c-197 -143 -361 -259 -365 -259 -5 0 -132 43 -283 95 -259 89 -276 94 -291 77 -9 -9 -132 -176 -273 -370 -157 -216 -255 -359 -252 -368 3 -8 81 -119 173 -247 91 -127 166 -236 166 -242 0 -5 -59 -191 -132 -412 l-131 -402 -285 -93 -285 -93 -2 -200 c-2 -211 3 -748 7 -753 2 -2 128 -42 281 -91 l279 -87 138 -417 138 -418 -176 -240 c-97 -132 -174 -247 -171 -254 8 -21 527 -730 536 -733 5 -2 131 42 280 97 l271 100 375 -272 376 -271 -8 -251 c-5 -137 -8 -270 -9 -294 l0 -44 430 -138 c236 -77 433 -139 436 -139 3 0 79 108 168 240 l162 240 133 0 c73 0 281 3 462 6 l329 7 163 -242 c90 -132 167 -243 171 -245 4 -3 202 59 440 137 l433 142 -6 185 c-4 102 -9 235 -12 295 l-5 110 374 272 374 271 274 -98 c257 -93 275 -98 290 -82 25 26 515 706 522 724 4 11 -51 86 -174 239 -98 122 -179 226 -179 232 0 10 279 881 283 883 1 0 126 34 277 75 l275 74 3 462 2 461 -277 92 c-153 51 -282 98 -288 105 -5 7 -68 192 -139 412 l-128 399 173 239 c95 132 173 247 173 255 0 20 -522 740 -537 740 -7 0 -134 -41 -284 -91 -173 -57 -277 -87 -286 -82 -8 4 -172 123 -365 263 l-350 255 1 300 2 299 -420 138 c-231 76 -427 138 -435 138 -8 0 -98 -108 -200 -240 l-184 -240 -417 0 -416 0 -188 245 c-103 135 -190 245 -194 244 -3 -1 -196 -63 -429 -139z m1393 -921 c601 -40 1128 -241 1605 -609 130 -101 387 -361 494 -500 488 -637 692 -1440 565 -2222 -212 -1306 -1280 -2295 -2599 -2408 -611 -52 -1231 98 -1764 428 -295 182 -617 487 -822 777 -415 586 -601 1327 -509 2031 125 957 717 1785 1579 2209 394 194 798 292 1251 303 28 1 117 -3 200 -9z"/>
 <path d="M3095 5431 l-16 -50 69 -68 c38 -37 73 -82 79 -98 15 -45 -22 -214 -217 -990 -256 -1013 -326 -1277 -355 -1335 -15 -29 -47 -74 -71 -100 l-44 -47 16 -47 c9 -26 21 -49 28 -51 6 -3 206 -6 444 -7 l432 -3 16 48 16 48 -37 41 -38 41 6 76 c8 98 243 1230 258 1246 2 2 85 -314 184 -701 l179 -704 57 0 58 0 15 53 c8 28 89 322 181 652 91 330 169 608 173 619 5 12 19 -58 40 -195 17 -118 59 -387 92 -599 34 -212 59 -400 56 -419 -3 -19 -17 -47 -32 -62 -25 -26 -26 -31 -18 -81 l9 -53 485 0 484 0 14 47 13 47 -40 36 c-70 64 -171 209 -193 278 -92 292 -334 1566 -389 2047 -11 101 -11 107 11 158 12 28 38 66 58 83 l35 31 -12 54 -12 54 -467 -2 -466 -3 -14 -47 c-12 -45 -12 -49 15 -89 24 -36 28 -52 26 -103 -1 -52 -71 -440 -90 -501 -7 -23 -39 116 -78 343 -31 180 -32 230 -4 267 20 25 21 31 10 81 l-12 54 -469 0 -468 0 -17 -49z"/>
 </g>

</svg>